<svg width="93" height="34" viewBox="0 0 93 34" fill="none" xmlns="http://www.w3.org/2000/svg">
<path d="M23.2188 15.7734V17H17.5312V15.7734H23.2188ZM17.8281 5.625V17H16.3203V5.625H17.8281ZM28.3844 17.1562C27.7958 17.1562 27.262 17.0573 26.7828 16.8594C26.3089 16.6562 25.9 16.3724 25.5562 16.0078C25.2177 15.6432 24.9573 15.2109 24.775 14.7109C24.5927 14.2109 24.5016 13.6641 24.5016 13.0703V12.7422C24.5016 12.0547 24.6031 11.4427 24.8062 10.9062C25.0094 10.3646 25.2854 9.90625 25.6344 9.53125C25.9833 9.15625 26.3792 8.8724 26.8219 8.67969C27.2646 8.48698 27.7229 8.39062 28.1969 8.39062C28.801 8.39062 29.3219 8.49479 29.7594 8.70312C30.2021 8.91146 30.5641 9.20312 30.8453 9.57812C31.1266 9.94792 31.3349 10.3854 31.4703 10.8906C31.6057 11.3906 31.6734 11.9375 31.6734 12.5312V13.1797H25.3609V12H30.2281V11.8906C30.2073 11.5156 30.1292 11.151 29.9937 10.7969C29.8635 10.4427 29.6552 10.151 29.3687 9.92188C29.0823 9.69271 28.6917 9.57812 28.1969 9.57812C27.8687 9.57812 27.5667 9.64844 27.2906 9.78906C27.0146 9.92448 26.7776 10.1276 26.5797 10.3984C26.3818 10.6693 26.2281 11 26.1187 11.3906C26.0094 11.7812 25.9547 12.2318 25.9547 12.7422V13.0703C25.9547 13.4714 26.0094 13.849 26.1187 14.2031C26.2333 14.5521 26.3974 14.8594 26.6109 15.125C26.8297 15.3906 27.0927 15.599 27.4 15.75C27.7125 15.901 28.0667 15.9766 28.4625 15.9766C28.9729 15.9766 29.4052 15.8724 29.7594 15.6641C30.1135 15.4557 30.4234 15.1771 30.6891 14.8281L31.5641 15.5234C31.3818 15.7995 31.15 16.0625 30.8687 16.3125C30.5875 16.5625 30.2411 16.7656 29.8297 16.9219C29.4234 17.0781 28.9417 17.1562 28.3844 17.1562ZM38.4953 15.5547V11.2031C38.4953 10.8698 38.4276 10.5807 38.2922 10.3359C38.162 10.0859 37.9641 9.89323 37.6984 9.75781C37.4328 9.6224 37.1047 9.55469 36.7141 9.55469C36.3495 9.55469 36.0292 9.61719 35.7531 9.74219C35.4823 9.86719 35.2687 10.0312 35.1125 10.2344C34.9615 10.4375 34.8859 10.6562 34.8859 10.8906H33.4406C33.4406 10.5885 33.5187 10.2891 33.675 9.99219C33.8312 9.69531 34.0552 9.42708 34.3469 9.1875C34.6437 8.94271 34.9979 8.75 35.4094 8.60938C35.826 8.46354 36.2896 8.39062 36.8 8.39062C37.4146 8.39062 37.9562 8.49479 38.425 8.70312C38.899 8.91146 39.2687 9.22656 39.5344 9.64844C39.8052 10.0651 39.9406 10.5885 39.9406 11.2188V15.1562C39.9406 15.4375 39.9641 15.737 40.0109 16.0547C40.063 16.3724 40.1385 16.6458 40.2375 16.875V17H38.7297C38.6568 16.8333 38.5995 16.612 38.5578 16.3359C38.5161 16.0547 38.4953 15.7943 38.4953 15.5547ZM38.7453 11.875L38.7609 12.8906H37.3C36.8885 12.8906 36.5214 12.9245 36.1984 12.9922C35.8755 13.0547 35.6047 13.151 35.3859 13.2812C35.1672 13.4115 35.0005 13.5755 34.8859 13.7734C34.7714 13.9661 34.7141 14.1927 34.7141 14.4531C34.7141 14.7188 34.774 14.9609 34.8937 15.1797C35.0135 15.3984 35.1932 15.5729 35.4328 15.7031C35.6776 15.8281 35.9771 15.8906 36.3312 15.8906C36.774 15.8906 37.1646 15.7969 37.5031 15.6094C37.8417 15.4219 38.1099 15.1927 38.3078 14.9219C38.5109 14.651 38.6203 14.388 38.6359 14.1328L39.2531 14.8281C39.2167 15.0469 39.1177 15.2891 38.9562 15.5547C38.7948 15.8203 38.5786 16.0755 38.3078 16.3203C38.0422 16.5599 37.7245 16.7604 37.3547 16.9219C36.9901 17.0781 36.5786 17.1562 36.1203 17.1562C35.5474 17.1562 35.0448 17.0443 34.6125 16.8203C34.1854 16.5964 33.8521 16.2969 33.6125 15.9219C33.3781 15.5417 33.2609 15.1172 33.2609 14.6484C33.2609 14.1953 33.3495 13.7969 33.5266 13.4531C33.7036 13.1042 33.9589 12.8151 34.2922 12.5859C34.6255 12.3516 35.0266 12.1745 35.4953 12.0547C35.9641 11.9349 36.4875 11.875 37.0656 11.875H38.7453ZM44.8094 15.6953L47.1219 8.54688H48.5984L45.5594 17H44.5906L44.8094 15.6953ZM42.8797 8.54688L45.2625 15.7344L45.4266 17H44.4578L41.3953 8.54688H42.8797ZM53.5375 17.1562C52.949 17.1562 52.4151 17.0573 51.9359 16.8594C51.462 16.6562 51.0531 16.3724 50.7094 16.0078C50.3708 15.6432 50.1104 15.2109 49.9281 14.7109C49.7458 14.2109 49.6547 13.6641 49.6547 13.0703V12.7422C49.6547 12.0547 49.7562 11.4427 49.9594 10.9062C50.1625 10.3646 50.4385 9.90625 50.7875 9.53125C51.1365 9.15625 51.5323 8.8724 51.975 8.67969C52.4177 8.48698 52.876 8.39062 53.35 8.39062C53.9542 8.39062 54.475 8.49479 54.9125 8.70312C55.3552 8.91146 55.7172 9.20312 55.9984 9.57812C56.2797 9.94792 56.488 10.3854 56.6234 10.8906C56.7589 11.3906 56.8266 11.9375 56.8266 12.5312V13.1797H50.5141V12H55.3812V11.8906C55.3604 11.5156 55.2823 11.151 55.1469 10.7969C55.0167 10.4427 54.8083 10.151 54.5219 9.92188C54.2354 9.69271 53.8448 9.57812 53.35 9.57812C53.0219 9.57812 52.7198 9.64844 52.4437 9.78906C52.1677 9.92448 51.9307 10.1276 51.7328 10.3984C51.5349 10.6693 51.3812 11 51.2719 11.3906C51.1625 11.7812 51.1078 12.2318 51.1078 12.7422V13.0703C51.1078 13.4714 51.1625 13.849 51.2719 14.2031C51.3865 14.5521 51.5505 14.8594 51.7641 15.125C51.9828 15.3906 52.2458 15.599 52.5531 15.75C52.8656 15.901 53.2198 15.9766 53.6156 15.9766C54.126 15.9766 54.5583 15.8724 54.9125 15.6641C55.2667 15.4557 55.5766 15.1771 55.8422 14.8281L56.7172 15.5234C56.5349 15.7995 56.3031 16.0625 56.0219 16.3125C55.7406 16.5625 55.3943 16.7656 54.9828 16.9219C54.5766 17.0781 54.0948 17.1562 53.5375 17.1562ZM68.1031 20.25V10.1719L68.2281 8.54688H69.5563V20.25H68.1031ZM62.4234 12.8672V12.7031C62.4234 12.0573 62.499 11.4714 62.65 10.9453C62.801 10.4141 63.0224 9.95833 63.3141 9.57812C63.6057 9.19792 63.9573 8.90625 64.3688 8.70312C64.7854 8.49479 65.2594 8.39062 65.7906 8.39062C66.3219 8.39062 66.788 8.48438 67.1891 8.67188C67.5953 8.85417 67.9391 9.1224 68.2203 9.47656C68.5068 9.82552 68.7333 10.2474 68.9 10.7422C69.0667 11.237 69.1813 11.7969 69.2438 12.4219V13.1406C69.1865 13.7604 69.0745 14.3177 68.9078 14.8125C68.7411 15.3073 68.5146 15.7292 68.2281 16.0781C67.9469 16.4271 67.6005 16.6953 67.1891 16.8828C66.7828 17.0651 66.3115 17.1562 65.775 17.1562C65.2542 17.1562 64.7854 17.0495 64.3688 16.8359C63.9573 16.6224 63.6057 16.3229 63.3141 15.9375C63.0276 15.5521 62.8063 15.099 62.65 14.5781C62.499 14.0521 62.4234 13.4818 62.4234 12.8672ZM63.8766 12.7031V12.8672C63.8766 13.2891 63.9208 13.6875 64.0094 14.0625C64.0979 14.4323 64.2333 14.7604 64.4156 15.0469C64.6031 15.3333 64.8375 15.5599 65.1188 15.7266C65.4052 15.888 65.7438 15.9688 66.1344 15.9688C66.6135 15.9688 67.012 15.8646 67.3297 15.6562C67.6526 15.4479 67.9104 15.1745 68.1031 14.8359C68.2958 14.4922 68.4443 14.125 68.5484 13.7344V11.8516C68.4911 11.5651 68.4 11.2865 68.275 11.0156C68.1552 10.7448 67.999 10.5026 67.8063 10.2891C67.6135 10.0703 67.3792 9.89844 67.1031 9.77344C66.8323 9.64323 66.5146 9.57812 66.15 9.57812C65.7542 9.57812 65.413 9.66146 65.1266 9.82812C64.8401 9.99479 64.6031 10.224 64.4156 10.5156C64.2333 10.8021 64.0979 11.1328 64.0094 11.5078C63.9208 11.8828 63.8766 12.2812 63.8766 12.7031ZM77.1984 15.0469V8.54688H78.6516V17H77.2687L77.1984 15.0469ZM77.4719 13.2656L78.0734 13.25C78.0734 13.8125 78.0135 14.3333 77.8937 14.8125C77.7792 15.2865 77.5917 15.6979 77.3312 16.0469C77.0708 16.3958 76.7297 16.6693 76.3078 16.8672C75.8859 17.0599 75.3729 17.1562 74.7687 17.1562C74.3573 17.1562 73.9797 17.0964 73.6359 16.9766C73.2974 16.8568 73.0057 16.6719 72.7609 16.4219C72.5161 16.1719 72.326 15.8464 72.1906 15.4453C72.0604 15.0443 71.9953 14.5625 71.9953 14V8.54688H73.4406V14.0156C73.4406 14.3958 73.4823 14.7109 73.5656 14.9609C73.6542 15.2057 73.7714 15.401 73.9172 15.5469C74.0682 15.6875 74.2349 15.7865 74.4172 15.8438C74.6047 15.901 74.7974 15.9297 74.9953 15.9297C75.6099 15.9297 76.0969 15.8125 76.4562 15.5781C76.8156 15.3385 77.0734 15.0182 77.2297 14.6172C77.3911 14.2109 77.4719 13.7604 77.4719 13.2656ZM82.575 8.54688V17H81.1219V8.54688H82.575ZM81.0125 6.30469C81.0125 6.07031 81.0828 5.8724 81.2234 5.71094C81.3693 5.54948 81.5828 5.46875 81.8641 5.46875C82.1401 5.46875 82.351 5.54948 82.4969 5.71094C82.6479 5.8724 82.7234 6.07031 82.7234 6.30469C82.7234 6.52865 82.6479 6.72135 82.4969 6.88281C82.351 7.03906 82.1401 7.11719 81.8641 7.11719C81.5828 7.11719 81.3693 7.03906 81.2234 6.88281C81.0828 6.72135 81.0125 6.52865 81.0125 6.30469ZM91.3422 15.8125V17H85.1937V15.8125H91.3422ZM91.1156 9.57031L85.5219 17H84.6391V15.9375L90.1937 8.54688H91.1156V9.57031ZM90.475 8.54688V9.74219H84.7016V8.54688H90.475Z" fill="black" fill-opacity="0.87"/>
<path d="M20 21H7.83L13.42 15.41L12 14L4 22L12 30L13.41 28.59L7.83 23H20V21Z" fill="#DC5050"/>
<path d="M19.5 22H92.5" stroke="#DC5050" stroke-width="2"/>
</svg>
